<svg xmlns="http://www.w3.org/2000/svg" version="1.1" xmlns:xlink="http://www.w3.org/1999/xlink" xmlns:svgjs="http://svgjs.dev/svgjs" width="1000" height="1000" viewBox="0 0 1000 1000"><rect width="1000" height="1000" fill="#000000"></rect><g transform="matrix(0.7,0,0,0.7,150.07466666666664,301.79398570165097)"><svg viewBox="0 0 375 212" data-background-color="#ed2647" preserveAspectRatio="xMidYMid meet" height="565" width="1000" xmlns="http://www.w3.org/2000/svg" xmlns:xlink="http://www.w3.org/1999/xlink"><g id="tight-bounds" transform="matrix(1,0,0,1,-0.03976036071776434,0.24443750000000364)"><svg viewBox="0 0 375.07952880859375 211.5111083984375" height="211.5111083984375" width="375.07952880859375"><g><svg></svg></g><g><svg viewBox="0 0 375.07952880859375 211.5111083984375" height="211.5111083984375" width="375.07952880859375"><g transform="matrix(1,0,0,1,-10.220239639282227,-21.546875)"><path xmlns="http://www.w3.org/2000/svg" d="M10.22 225.653v-204.106h375.08v204.106l-10.206 0v-6.581h3.625v-190.944h-361.918v190.944h292.871v6.581z" fill="#ffffff" fill-rule="nonzero" stroke="none" stroke-width="1" stroke-linecap="butt" stroke-linejoin="miter" stroke-miterlimit="10" stroke-dasharray="" stroke-dashoffset="0" font-family="none" font-weight="none" font-size="none" text-anchor="none" style="mix-blend-mode: normal" data-fill-palette-color="tertiary"></path><g><path xmlns="http://www.w3.org/2000/svg" d="M341.12 211.71v2.695h-4.716v18.653h-3.327v-18.653h-3.663v-2.695h3.663v-1.979c0-2.077 0.556-3.719 1.668-4.927 1.106-1.207 2.642-1.811 4.606-1.81v0c0.674 0 1.361 0.098 2.064 0.294v0 3.032c-0.674-0.225-1.319-0.337-1.937-0.337v0c-0.898 0-1.634 0.309-2.207 0.926-0.578 0.618-0.867 1.572-0.867 2.864v0 1.937zM348.362 221.394v11.664h-3.326l0.042-21.348h3.284v3.747c1.123-2.639 3.06-3.958 5.811-3.958v0c0.505 0 0.898 0.028 1.179 0.084v0 3.285c-0.59-0.197-1.193-0.295-1.811-0.295v0c-1.488 0-2.723 0.688-3.705 2.063-0.983 1.375-1.474 2.962-1.474 4.758z" fill="#ffffff" fill-rule="nonzero" stroke="none" stroke-width="1" stroke-linecap="butt" stroke-linejoin="miter" stroke-miterlimit="10" stroke-dasharray="" stroke-dashoffset="0" font-family="none" font-weight="none" font-size="none" text-anchor="none" style="mix-blend-mode: normal" data-fill-palette-color="secondary"></path></g></g><g transform="matrix(1,0,0,1,29.331764404296877,69.26955834458285)"><svg viewBox="0 0 316.416 72.9719917092718" height="72.9719917092718" width="316.416"><g><svg viewBox="0 0 316.416 72.9719917092718" height="72.9719917092718" width="316.416"><g><svg viewBox="0 0 316.416 72.9719917092718" height="72.9719917092718" width="316.416"><g><svg viewBox="0 0 316.416 72.9719917092718" height="72.9719917092718" width="316.416"><g id="textblocktransform"><svg viewBox="0 0 316.416 72.9719917092718" height="72.9719917092718" width="316.416" id="textblock"><g><svg viewBox="0 0 316.416 72.9719917092718" height="72.9719917092718" width="316.416"><g transform="matrix(1,0,0,1,0,0)"><svg width="316.416" viewBox="1.100000023841858 -39.040000915527344 176.6599884033203 40.75" height="72.9719917092718" data-palette-color="#8d021f"><path d="M25.39-20.95L25.39-20.95 20.51-16.04Q20.14-17.07 19.51-17.88 18.87-18.7 18.08-19.26 17.29-19.82 16.36-20.12 15.43-20.41 14.45-20.41L14.45-20.41Q13.09-20.41 11.88-19.85 10.67-19.29 9.78-18.27 8.89-17.26 8.37-15.87 7.86-14.48 7.86-12.79L7.86-12.79Q7.86-11.43 8.37-10.23 8.89-9.03 9.78-8.13 10.67-7.23 11.88-6.71 13.09-6.2 14.45-6.2L14.45-6.2Q15.43-6.2 16.33-6.47 17.24-6.74 18.03-7.24 18.82-7.74 19.45-8.46 20.07-9.18 20.46-10.06L20.46-10.06 25.34-5.15Q24.41-3.83 23.21-2.78 22-1.73 20.59-1 19.19-0.27 17.64 0.11 16.09 0.49 14.45 0.49L14.45 0.49Q11.69 0.49 9.27-0.55 6.84-1.59 5.02-3.39 3.2-5.2 2.15-7.62 1.1-10.03 1.1-12.79L1.1-12.79Q1.1-15.8 2.15-18.41 3.2-21.02 5.02-22.96 6.84-24.9 9.27-26.03 11.69-27.15 14.45-27.15L14.45-27.15Q16.09-27.15 17.66-26.73 19.24-26.32 20.67-25.52 22.09-24.73 23.3-23.58 24.51-22.44 25.39-20.95ZM35.3-14.94L35.3 0 28.64 0 28.64-36.55 35.3-36.55 35.3-25Q36.5-25.9 37.77-26.28 39.04-26.66 40.35-26.66L40.35-26.66Q42.77-26.66 44.89-25.74 47.02-24.83 48.59-23.23 50.17-21.63 51.08-19.49 52-17.36 52-14.94L52-14.94 52 0 45.29 0 45.29-14.94 45.33-14.94Q45.33-15.97 44.94-16.88 44.55-17.8 43.87-18.48 43.19-19.17 42.28-19.56 41.38-19.95 40.35-19.95L40.35-19.95Q39.3-19.95 38.38-19.56 37.45-19.17 36.77-18.48 36.08-17.8 35.69-16.88 35.3-15.97 35.3-14.94L35.3-14.94ZM63.4-14.4L63.4 0 56.73 0 56.73-26.15 58.34-26.15 60.54-23.05Q62.15-24.51 64.2-25.31 66.25-26.1 68.45-26.1L68.45-26.1 74.34-26.1 74.34-19.46 68.45-19.46Q67.4-19.46 66.47-19.07 65.55-18.68 64.86-17.99 64.18-17.31 63.79-16.38 63.4-15.45 63.4-14.4L63.4-14.4ZM85.3-33.25L85.3-33.25Q85.3-32.32 84.94-31.52 84.59-30.71 83.98-30.11 83.37-29.52 82.55-29.16 81.73-28.81 80.8-28.81L80.8-28.81Q79.88-28.81 79.06-29.16 78.24-29.52 77.64-30.11 77.04-30.71 76.69-31.52 76.34-32.32 76.34-33.25L76.34-33.25Q76.34-34.16 76.69-34.97 77.04-35.79 77.64-36.39 78.24-36.99 79.06-37.34 79.88-37.7 80.8-37.7L80.8-37.7Q81.73-37.7 82.55-37.34 83.37-36.99 83.98-36.39 84.59-35.79 84.94-34.97 85.3-34.16 85.3-33.25ZM84.15-26.15L84.15 0 77.43 0 77.43-26.15 84.15-26.15ZM97.08-33.25L97.08-33.25Q97.08-32.32 96.73-31.52 96.38-30.71 95.77-30.11 95.16-29.52 94.34-29.16 93.52-28.81 92.59-28.81L92.59-28.81Q91.66-28.81 90.85-29.16 90.03-29.52 89.43-30.11 88.83-30.71 88.48-31.52 88.12-32.32 88.12-33.25L88.12-33.25Q88.12-34.16 88.48-34.97 88.83-35.79 89.43-36.39 90.03-36.99 90.85-37.34 91.66-37.7 92.59-37.7L92.59-37.7Q93.52-37.7 94.34-37.34 95.16-36.99 95.77-36.39 96.38-35.79 96.73-34.97 97.08-34.16 97.08-33.25ZM95.94-26.15L95.94 0 89.22 0 89.22-26.15 95.94-26.15ZM115.37 0L115.37 0 100.13 0 100.13-6.64 115.37-6.64Q116.05-6.64 116.54-7.13 117.03-7.62 117.03-8.3L117.03-8.3Q117.03-9.01 116.54-9.23 116.05-9.45 115.37-9.45L115.37-9.45 108.43-9.45Q106.7-9.45 105.19-10.11 103.67-10.77 102.55-11.9 101.43-13.04 100.78-14.55 100.13-16.06 100.13-17.8L100.13-17.8Q100.13-19.53 100.78-21.04 101.43-22.56 102.55-23.68 103.67-24.8 105.19-25.45 106.7-26.1 108.43-26.1L108.43-26.1 121.94-26.1 121.94-19.46 108.43-19.46Q107.75-19.46 107.26-18.97 106.77-18.48 106.77-17.8L106.77-17.8Q106.77-17.09 107.26-16.59 107.75-16.09 108.43-16.09L108.43-16.09 115.37-16.09Q117.08-16.09 118.59-15.52 120.1-14.94 121.23-13.92 122.35-12.89 123.01-11.45 123.67-10.01 123.67-8.3L123.67-8.3Q123.67-6.57 123.01-5.07 122.35-3.56 121.23-2.43 120.1-1.29 118.59-0.65 117.08 0 115.37 0ZM135.41-2.49L135.41-2.49Q135.41-1.61 135.09-0.84 134.78-0.07 134.21 0.49 133.65 1.05 132.9 1.38 132.14 1.71 131.26 1.71L131.26 1.71Q130.4 1.71 129.64 1.38 128.87 1.05 128.29 0.49 127.72-0.07 127.39-0.84 127.06-1.61 127.06-2.49L127.06-2.49Q127.06-3.34 127.39-4.1 127.72-4.86 128.29-5.42 128.87-5.98 129.64-6.31 130.4-6.64 131.26-6.64L131.26-6.64Q132.14-6.64 132.9-6.31 133.65-5.98 134.21-5.42 134.78-4.86 135.09-4.1 135.41-3.34 135.41-2.49ZM148.84-19.51L148.84 0 142.17 0 142.17-19.51 138.92-19.51 138.92-26.15 142.17-26.15 142.17-27.39Q142.17-29.81 143.09-31.93 144-34.06 145.6-35.63 147.2-37.21 149.32-38.12 151.45-39.04 153.86-39.04L153.86-39.04 158.87-39.04 158.87-32.4 153.86-32.4Q152.79-32.4 151.87-32.02 150.96-31.64 150.29-30.97 149.62-30.3 149.23-29.38 148.84-28.47 148.84-27.39L148.84-27.39 148.84-26.15 157.01-26.15 157.01-19.51 148.84-19.51ZM166.83-14.4L166.83 0 160.16 0 160.16-26.15 161.77-26.15 163.97-23.05Q165.58-24.51 167.63-25.31 169.68-26.1 171.88-26.1L171.88-26.1 177.76-26.1 177.76-19.46 171.88-19.46Q170.83-19.46 169.9-19.07 168.97-18.68 168.29-17.99 167.61-17.31 167.22-16.38 166.83-15.45 166.83-14.4L166.83-14.4Z" opacity="1" transform="matrix(1,0,0,1,0,0)" fill="#ffffff" class="wordmark-text-0" data-fill-palette-color="primary" id="text-0"></path></svg></g></svg></g></svg></g></svg></g></svg></g></svg></g></svg></g></svg></g><defs></defs></svg><rect width="375.07952880859375" height="211.5111083984375" fill="none" stroke="none" visibility="hidden"></rect></g></svg></g></svg>